<svg xmlns="http://www.w3.org/2000/svg" width="2553" height="945" viewBox="0 0 2553 945">
  <rect width="100%" height="100%" fill="#1C3F2E"/>
  <svg x="0" y="0" width="2553" height="945" viewBox="0 0 851 315" preserveAspectRatio="xMidYMid meet">
    


<metadata>
Created by potrace 1.16, written by Peter Selinger 2001-2019
</metadata>
<g transform="translate(0.000000,315.000000) scale(0.100000,-0.100000)"
fill="#D4A017" stroke="none">
<path d="M3560 2064 c0 -12 43 -78 69 -108 l26 -30 -25 17 c-14 9 -36 25 -49
34 -20 15 -177 36 -190 26 -9 -6 62 -72 93 -87 17 -8 73 -16 124 -19 51 -2 98
-9 105 -16 15 -15 50 -14 65 1 18 18 15 43 -9 63 -17 16 -25 17 -49 8 -33 -12
-50 0 -69 50 -13 32 -91 85 -91 61z"/>
<path d="M3124 1995 c-3 -8 -4 -83 -2 -167 3 -140 5 -156 27 -191 34 -55 89
-80 168 -75 67 4 100 21 137 72 18 23 22 45 24 143 l4 115 -34 29 c-18 15 -36
28 -40 29 -5 0 -8 -46 -8 -102 0 -161 -22 -208 -98 -208 -24 0 -42 9 -63 29
l-29 29 0 156 0 156 -40 0 c-26 0 -43 -5 -46 -15z"/>
<path d="M3700 1783 c0 -111 -16 -131 -116 -141 -84 -9 -121 -30 -141 -81 -13
-34 -17 -36 -48 -33 -18 2 -49 -4 -69 -13 -35 -17 -39 -17 -76 0 -46 21 -95
15 -135 -17 -47 -37 -55 -72 -55 -253 l0 -165 45 0 45 0 2 172 3 173 29 10
c24 8 31 6 47 -14 17 -21 19 -41 19 -182 l0 -159 40 0 40 0 0 158 c0 167 9
202 50 202 45 0 50 -21 50 -196 l0 -164 46 0 46 0 -3 225 c-3 263 -6 254 92
261 130 10 169 54 177 199 l5 93 -47 3 -46 4 0 -82z"/>
<path d="M4000 1757 c0 -51 3 -59 24 -68 17 -8 29 -8 45 0 18 10 21 21 21 68
0 66 -12 63 -20 -5 -4 -39 -9 -47 -25 -47 -17 0 -21 8 -23 45 -5 69 -22 74
-22 7z"/>
<path d="M4116 1803 c-3 -3 -6 -30 -6 -60 0 -50 10 -67 26 -42 4 8 9 8 17 0 6
-6 18 -11 26 -11 11 0 11 4 -3 19 -17 18 -17 21 -1 45 20 29 11 34 -17 9 -17
-15 -18 -15 -18 10 0 26 -12 42 -24 30z"/>
<path d="M4360 1800 c0 -5 5 -10 10 -10 6 0 10 5 10 10 0 6 -4 10 -10 10 -5 0
-10 -4 -10 -10z"/>
<path d="M4505 1800 c-3 -5 -1 -10 4 -10 6 0 11 5 11 10 0 6 -2 10 -4 10 -3 0
-8 -4 -11 -10z"/>
<path d="M4780 1751 c0 -34 4 -61 10 -61 6 0 10 24 10 54 0 30 -4 58 -10 61
-6 4 -10 -17 -10 -54z"/>
<path d="M5080 1800 c0 -5 5 -10 10 -10 6 0 10 5 10 10 0 6 -4 10 -10 10 -5 0
-10 -4 -10 -10z"/>
<path d="M5010 1783 c-10 -12 -11 -18 -2 -21 7 -2 12 -19 12 -37 0 -31 24 -55
39 -39 3 4 0 9 -6 11 -17 6 -17 60 -1 65 9 3 8 9 -4 21 -20 20 -19 20 -38 0z"/>
<path d="M5120 1783 c-10 -12 -11 -18 -2 -21 7 -2 12 -19 12 -37 0 -21 6 -35
16 -39 23 -9 40 5 20 16 -22 12 -21 58 1 58 14 0 14 3 -5 20 -25 24 -23 24
-42 3z"/>
<path d="M5292 1780 c-7 -12 -8 -20 -2 -20 5 0 10 -15 10 -34 0 -22 6 -36 16
-40 23 -9 40 5 20 16 -21 12 -22 58 -1 58 8 0 15 5 15 10 0 6 -7 10 -15 10 -8
0 -15 5 -15 10 0 17 -14 11 -28 -10z"/>
<path d="M4200 1734 c0 -24 5 -44 10 -44 6 0 10 14 10 30 0 18 6 33 15 36 23
9 18 22 -10 22 -23 0 -25 -4 -25 -44z"/>
<path d="M4269 1763 c-13 -15 -11 -16 14 -9 15 3 27 2 27 -3 0 -5 -10 -11 -22
-13 -14 -2 -24 -11 -26 -24 -4 -25 14 -34 51 -27 23 4 27 11 27 37 0 52 -42
75 -71 39z m51 -43 c0 -13 -28 -25 -38 -16 -3 4 0 11 8 16 20 13 30 12 30 0z"/>
<path d="M4360 1735 c0 -25 5 -45 10 -45 6 0 10 20 10 45 0 25 -4 45 -10 45
-5 0 -10 -20 -10 -45z"/>
<path d="M4400 1734 c0 -51 17 -60 22 -11 2 20 8 32 18 32 10 0 16 -12 18 -32
5 -49 24 -40 20 10 -3 41 -4 42 -40 44 l-38 1 0 -44z"/>
<path d="M4507 1773 c-11 -10 -8 -83 3 -83 6 0 10 20 10 45 0 46 -2 50 -13 38z"/>
<path d="M4557 1774 c-15 -15 -6 -24 18 -18 35 9 31 -5 -5 -17 -54 -19 -31
-67 26 -53 22 6 25 11 22 48 -3 36 -6 41 -28 44 -14 2 -29 0 -33 -4z m43 -54
c0 -13 -28 -25 -38 -16 -3 4 0 11 8 16 20 13 30 12 30 0z"/>
<path d="M4640 1736 c0 -52 17 -63 22 -13 2 20 8 32 18 32 10 0 16 -12 18 -32
5 -49 24 -40 20 10 -3 41 -4 42 -40 45 l-38 3 0 -45z"/>
<path d="M4820 1735 c0 -52 17 -61 22 -12 2 20 8 32 18 32 10 0 16 -12 18 -32
4 -43 22 -43 22 0 0 40 -15 57 -52 57 -27 0 -28 -2 -28 -45z"/>
<path d="M4927 1774 c-16 -16 -6 -42 18 -48 14 -4 25 -11 25 -16 0 -13 -7 -13
-31 0 -15 8 -19 7 -19 -4 0 -17 31 -29 54 -20 25 10 19 43 -9 54 -33 13 -32
24 1 16 19 -5 25 -3 22 6 -5 14 -50 23 -61 12z"/>
<path d="M5080 1735 c0 -25 5 -45 10 -45 6 0 10 20 10 45 0 25 -4 45 -10 45
-5 0 -10 -20 -10 -45z"/>
<path d="M5190 1741 c0 -46 18 -64 54 -55 23 5 26 11 26 50 0 54 -18 59 -22 7
-2 -26 -8 -38 -18 -38 -10 0 -16 12 -18 38 -4 49 -22 48 -22 -2z"/>
<path d="M5374 1772 c-29 -20 -25 -65 7 -83 22 -11 63 6 53 22 -4 6 -11 6 -19
-1 -15 -12 -35 -6 -35 11 0 5 14 9 30 9 31 0 39 17 18 38 -13 13 -38 15 -54 4z
m41 -22 c3 -5 -3 -10 -14 -10 -12 0 -21 5 -21 10 0 6 6 10 14 10 8 0 18 -4 21
-10z"/>
<path d="M4110 1596 c0 -8 -5 -16 -11 -18 -9 -3 -9 -10 0 -27 7 -13 11 -32 8
-42 -3 -12 0 -19 9 -19 9 0 14 11 14 34 0 19 6 37 13 40 9 5 9 7 -1 12 -10 5
-10 9 -1 20 9 11 7 14 -10 14 -11 0 -21 -6 -21 -14z"/>
<path d="M4190 1550 c0 -61 19 -87 21 -27 l0 32 16 -32 c9 -18 21 -33 25 -33
5 0 15 15 23 33 l14 32 1 -32 c0 -18 5 -33 10 -33 6 0 10 27 10 60 0 33 -4 60
-8 60 -4 0 -17 -19 -29 -42 l-20 -43 -22 43 c-12 23 -26 42 -31 42 -6 0 -10
-27 -10 -60z"/>
<path d="M4848 1604 c-5 -4 -8 -31 -8 -61 0 -40 4 -53 15 -53 11 0 15 11 15
36 0 28 3 35 18 32 11 -2 18 -14 20 -36 4 -42 22 -42 22 1 0 38 -15 57 -46 57
-13 0 -24 7 -26 16 -2 9 -6 12 -10 8z"/>
<path d="M4950 1600 c0 -5 5 -10 10 -10 6 0 10 5 10 10 0 6 -4 10 -10 10 -5 0
-10 -4 -10 -10z"/>
<path d="M4530 1583 c-10 -12 -11 -18 -2 -21 7 -2 12 -19 12 -38 0 -28 4 -34
22 -34 17 0 19 3 10 12 -16 16 -15 55 0 60 9 3 8 9 -4 21 -20 20 -19 20 -38 0z"/>
<path d="M3998 1556 c-19 -44 15 -82 60 -65 25 9 31 56 10 77 -21 21 -57 14
-70 -12z m60 -22 c4 -27 -24 -39 -36 -16 -5 9 -7 23 -5 30 8 20 38 9 41 -14z"/>
<path d="M4342 1568 c-21 -21 -15 -68 11 -77 25 -10 61 4 51 20 -4 7 -10 7
-16 1 -12 -12 -38 -5 -38 9 0 5 16 9 35 9 31 0 34 2 26 23 -9 25 -50 34 -69
15z m48 -18 c0 -5 -9 -10 -21 -10 -11 0 -17 5 -14 10 3 6 13 10 21 10 8 0 14
-4 14 -10z"/>
<path d="M4430 1536 c0 -52 17 -63 22 -13 2 20 8 32 18 32 10 0 16 -12 18 -32
5 -49 24 -40 20 10 -3 41 -4 42 -40 45 l-38 3 0 -45z"/>
<path d="M4602 1568 c-31 -31 5 -92 49 -81 23 6 36 49 22 72 -13 20 -54 26
-71 9z m56 -34 c2 -12 -4 -24 -12 -27 -19 -7 -40 18 -32 39 8 22 40 13 44 -12z"/>
<path d="M4700 1533 c0 -24 5 -43 10 -43 6 0 10 16 10 35 0 25 4 35 15 35 9 0
18 -6 21 -14 3 -8 17 -17 31 -21 19 -4 23 -9 15 -17 -8 -8 -15 -8 -26 1 -10 8
-16 9 -21 1 -8 -13 16 -23 47 -18 33 4 35 36 4 48 -34 12 -34 24 0 16 19 -5
25 -3 22 6 -6 18 -46 22 -64 8 -10 -9 -14 -9 -14 -1 0 6 -11 10 -25 9 -22 -2
-25 -7 -25 -45z"/>
<path d="M4950 1535 c0 -25 5 -45 10 -45 6 0 10 20 10 45 0 25 -4 45 -10 45
-5 0 -10 -20 -10 -45z"/>
<path d="M4990 1515 c0 -37 4 -65 10 -65 6 0 10 9 10 20 0 12 6 20 13 19 41
-5 63 24 47 65 -8 21 -16 26 -45 26 l-35 0 0 -65z m58 18 c-3 -30 -25 -42 -34
-19 -9 22 2 46 21 46 12 0 15 -8 13 -27z"/>
<path d="M3567 1512 c-15 -16 -17 -47 -17 -226 l0 -207 43 3 42 3 3 71 3 72
82 4 c93 5 127 21 151 73 37 78 10 175 -58 206 -59 27 -226 27 -249 1z m211
-78 c16 -11 22 -25 22 -54 0 -52 -26 -70 -102 -70 l-58 0 0 70 0 70 58 0 c36
0 66 -6 80 -16z"/>
<path d="M4250 1396 c0 -9 -12 -16 -27 -18 -25 -3 -28 -7 -28 -43 0 -39 1 -40
38 -43 l37 -3 0 60 c0 34 -4 61 -10 61 -5 0 -10 -6 -10 -14z m0 -61 c0 -18 -5
-25 -20 -25 -15 0 -20 7 -20 25 0 18 5 25 20 25 15 0 20 -7 20 -25z"/>
<path d="M4320 1356 c0 -56 13 -82 23 -46 3 13 14 20 31 20 32 0 51 31 36 60
-8 15 -21 20 -50 20 l-40 0 0 -54z m70 14 c0 -21 -33 -29 -45 -10 -9 15 4 30
26 30 12 0 19 -7 19 -20z"/>
<path d="M4701 1353 c-1 -36 3 -63 9 -63 6 0 10 16 10 36 0 28 3 35 18 32 11
-2 18 -14 20 -36 4 -42 22 -42 22 1 0 38 -15 57 -46 57 -13 0 -24 7 -27 18 -3
9 -5 -11 -6 -45z"/>
<path d="M4901 1392 c-6 -11 -9 -27 -7 -34 2 -7 7 -25 10 -40 4 -19 13 -28 26
-28 24 0 25 9 3 25 -15 11 -16 15 -1 36 14 22 13 26 -3 42 -17 18 -18 18 -28
-1z"/>
<path d="M4007 1374 c-15 -16 -6 -24 21 -19 24 5 23 4 -6 -9 -46 -22 -40 -50
11 -54 l38 -3 -3 43 c-3 38 -6 43 -28 46 -14 2 -29 0 -33 -4z m43 -54 c0 -5
-9 -10 -21 -10 -11 0 -17 5 -14 10 3 6 13 10 21 10 8 0 14 -4 14 -10z"/>
<path d="M4090 1335 c0 -52 17 -61 22 -13 2 22 9 34 21 36 14 3 17 -4 17 -33
0 -25 4 -35 13 -33 17 6 20 29 8 61 -9 22 -17 27 -46 27 -35 0 -35 0 -35 -45z"/>
<path d="M4437 1373 c-14 -14 -6 -34 18 -43 14 -5 25 -12 25 -16 0 -3 -11 -3
-25 0 -19 5 -25 2 -25 -9 0 -12 8 -15 32 -13 42 4 50 33 14 49 -14 7 -23 16
-20 21 3 5 12 4 20 -3 16 -13 30 -6 19 10 -7 12 -48 15 -58 4z"/>
<path d="M4510 1371 c0 -5 7 -24 14 -43 8 -19 12 -45 9 -56 -3 -12 -1 -22 3
-22 8 0 54 105 54 123 0 18 -20 4 -26 -18 -3 -14 -10 -25 -14 -25 -4 0 -11 11
-14 25 -6 23 -26 36 -26 16z"/>
<path d="M4604 1366 c-3 -8 -4 -27 -2 -43 3 -25 7 -28 37 -28 19 0 36 6 38 12
3 9 -4 11 -26 7 -29 -6 -31 -4 -31 21 0 25 2 27 31 21 22 -4 29 -2 27 7 -7 18
-67 21 -74 3z"/>
<path d="M4802 1368 c-28 -28 -7 -78 33 -78 27 0 45 18 45 45 0 27 -18 45 -45
45 -12 0 -26 -5 -33 -12z m56 -31 c4 -21 -27 -35 -38 -17 -12 19 0 42 19 38 9
-2 17 -11 19 -21z"/>
<path d="M4972 1368 c-16 -16 -15 -53 2 -68 18 -14 58 -10 64 7 2 9 -5 11 -27
7 -20 -4 -31 -2 -31 5 0 6 16 11 35 11 38 0 40 2 25 31 -12 21 -50 25 -68 7z
m43 -8 c3 -6 -4 -10 -17 -10 -18 0 -20 2 -8 10 19 12 18 12 25 0z"/>
<path d="M5060 1335 c0 -25 5 -45 10 -45 6 0 10 14 10 30 0 18 6 33 15 36 24
9 17 24 -10 24 -23 0 -25 -4 -25 -45z"/>
<path d="M5127 1374 c-15 -15 -6 -23 21 -20 15 2 19 1 10 -1 -52 -13 -47 -63
7 -63 l36 0 -3 43 c-3 39 -5 42 -33 45 -17 2 -34 0 -38 -4z m48 -54 c-3 -5
-13 -10 -21 -10 -8 0 -12 5 -9 10 3 6 13 10 21 10 8 0 12 -4 9 -10z"/>
<path d="M5220 1316 c0 -37 4 -66 10 -66 6 0 10 9 10 20 0 15 7 20 25 20 18 0
26 7 31 27 9 35 -7 57 -45 61 l-31 3 0 -65z m55 19 c0 -11 -8 -21 -17 -23 -14
-3 -18 3 -18 23 0 20 4 26 18 23 9 -2 17 -12 17 -23z"/>
<path d="M5310 1371 c0 -5 7 -25 15 -46 9 -20 13 -45 10 -56 -4 -10 -2 -19 3
-19 8 0 52 105 52 124 0 17 -20 3 -26 -19 -3 -14 -10 -25 -14 -25 -4 0 -11 11
-14 25 -6 23 -26 36 -26 16z"/>
</g>


  </svg>
</svg>